<?xml version="1.0" encoding="iso-8859-1"?>
<!-- Generator: Adobe Illustrator 19.0.0, SVG Export Plug-In . SVG Version: 6.00 Build 0)  -->
<svg version="1.1" id="Layer_1" xmlns="http://www.w3.org/2000/svg" xmlns:xlink="http://www.w3.org/1999/xlink" x="0px" y="0px"
	 viewBox="0 0 511.97 511.97" style="enable-background:new 0 0 511.97 511.97;" xml:space="preserve">
<g>
	<g>
		<path d="M510.755,432.149l-29.292-29.292c-0.488-39.545-32.587-71.644-72.132-72.132l-27.584-27.584
			c-1.587-1.587-4.149-1.587-5.614,0l-46.379,46.135c-0.732,0.732-1.22,1.709-1.22,2.807s0.366,2.075,1.22,2.807l11.839,11.839
			l-27.339,27.339c-61.391-48.454-148.169-135.232-196.501-196.623l27.217-27.217l11.839,11.839c1.587,1.587,4.149,1.587,5.614,0
			l46.257-46.257c0.732-0.732,1.22-1.709,1.22-2.807c0-1.098-0.366-2.075-1.22-2.807l-28.56-28.56
			c0-40.155-32.709-72.864-72.864-72.864L79.675,1.19c-1.587-1.587-4.149-1.587-5.614,0L27.803,47.325
			c-0.732,0.732-1.22,1.709-1.22,2.807c0,1.098,0.366,2.075,1.22,2.807l11.595,11.595C26.46,85.893,8.275,115.674,6.2,118.725
			c-6.834,7.079-7.933,18.063-2.685,26.363c84.337,133.035,230.553,279.128,363.587,363.587c3.539,2.197,7.445,3.295,11.473,3.295
			c5.492,0,10.863-2.075,14.89-5.98c2.929-2.075,32.465-20.504,53.58-33.686l11.595,11.595c1.587,1.587,4.149,1.587,5.614,0
			l46.257-46.135c0.732-0.732,1.22-1.709,1.22-2.807C511.854,433.858,511.488,432.881,510.755,432.149z M472.676,394.07
			l-54.801-54.801C446.19,343.54,468.526,365.876,472.676,394.07z M171.701,93.094L116.046,37.44
			C144.849,41.345,167.794,64.29,171.701,93.094z M461.691,475.477l-10.985-10.985c0,0,0,0,0-0.122l-47.966-47.966
			c-1.587-1.587-4.149-1.587-5.614,0c-1.587,1.587-1.587,4.149,0,5.614l44.426,44.304c-52.115,32.465-52.847,33.319-53.214,33.686
			c-4.394,4.393-11.351,5.126-16.599,1.831C239.316,418.235,94.199,273.118,10.35,141.059c-3.295-5.248-2.563-12.205,1.831-16.599
			c0.366-0.366,1.22-1.22,33.075-53.824l4.027,4.027c0.732,0.732,1.831,1.22,2.807,1.22s2.075-0.366,2.807-1.22
			c1.587-1.587,1.587-4.149,0-5.614l-7.811-7.811L36.225,50.376L76.745,9.856L200.26,133.127l-40.521,40.521L147.9,161.809
			l-46.135-46.013c-1.587-1.587-4.149-1.587-5.614,0c-1.587,1.587-1.587,4.149,0,5.614l43.206,43.206l-29.78,29.658
			c-1.465,1.465-1.587,3.661-0.366,5.248c48.942,62.856,139.991,153.905,202.969,203.091c1.587,1.22,3.905,1.098,5.248-0.366
			l29.902-29.902l4.149,4.149c0.732,0.732,1.831,1.22,2.807,1.22s2.075-0.366,2.807-1.22c1.587-1.587,1.587-4.149,0-5.614
			l-7.69-7.689l-11.107-11.107l40.521-40.521l123.393,123.393L461.691,475.477z"/>
	</g>
</g>
<g>
	<g>
		<path d="M256.037,51.598c-2.197,0-4.027,1.831-4.027,4.027c-0.001,2.197,1.83,3.905,4.027,3.905
			c108.014,0,195.891,87.876,195.891,195.891c0,2.197,1.831,4.027,4.027,4.027s4.027-1.831,4.027-4.027
			C459.982,143.012,368.566,51.598,256.037,51.598z"/>
	</g>
</g>
<g>
	<g>
		<path d="M256.036,91.873c-2.197,0-4.027,1.831-4.027,4.027c0,2.076,1.831,3.906,4.028,3.906
			c85.924,0,155.736,69.813,155.736,155.736c0,2.197,1.831,4.027,4.027,4.027c2.196,0,4.027-1.831,4.027-4.027
			C419.828,165.348,346.354,91.873,256.036,91.873z"/>
	</g>
</g>
<g>
	<g>
		<path d="M256.158,131.418c-2.197,0-4.027,1.831-4.027,4.027c-0.122,2.197,1.709,3.906,3.906,3.906
			c63.954,0,116.07,51.993,116.07,116.07c0,2.197,1.831,4.027,4.027,4.027s4.027-1.831,4.027-4.027
			C380.161,187.072,324.507,131.418,256.158,131.418z"/>
	</g>
</g>
<g>
	<g>
		<path d="M256.158,171.572c-2.197,0-4.027,1.831-4.027,4.027c0,2.197,1.831,4.027,4.027,4.027
			c41.742,0.001,75.794,34.053,75.794,75.794c0,2.197,1.831,4.027,4.027,4.027c2.196,0,4.027-1.831,4.027-4.027
			C340.007,209.164,302.415,171.572,256.158,171.572z"/>
	</g>
</g>
<g>
	<g>
		<path d="M256.035,211.726c-2.195,0.001-4.026,1.832-4.026,4.028c0,2.197,1.831,4.027,4.027,4.027
			c19.65,0,35.638,15.989,35.638,35.638c0,2.197,1.831,4.027,4.027,4.027c2.197,0,4.027-1.831,4.027-4.027
			C299.729,231.376,280.079,211.726,256.035,211.726z"/>
	</g>
</g>
<g>
</g>
<g>
</g>
<g>
</g>
<g>
</g>
<g>
</g>
<g>
</g>
<g>
</g>
<g>
</g>
<g>
</g>
<g>
</g>
<g>
</g>
<g>
</g>
<g>
</g>
<g>
</g>
<g>
</g>
</svg>
